<svg xmlns="http://www.w3.org/2000/svg" width="90.901" height="86.691" viewBox="0 0 90.901 86.691"><g transform="translate(-606.411 -2594.217)"><g transform="translate(-1095.555 2418.967)" fill="#174dfd"><path d="M 1749.738159179688 259.9407348632812 L 1744.643798828125 259.9407348632812 C 1742.6826171875 259.9407348632812 1740.953125 258.6153259277344 1740.43798828125 256.717529296875 L 1740.43603515625 256.7104797363281 L 1740.434204101562 256.703369140625 L 1740.217407226562 255.8807220458984 C 1739.505126953125 255.56494140625 1738.864990234375 255.0952606201172 1738.348754882812 254.5001831054688 C 1737.511352539062 253.5348968505859 1737.050170898438 252.2958374023438 1737.050170898438 251.01123046875 L 1737.050170898438 248.9265441894531 C 1737.050170898438 247.8526916503906 1737.466796875 246.8447113037109 1738.223266601562 246.0882568359375 C 1738.474609375 245.8368225097656 1738.75390625 245.6229400634766 1739.054077148438 245.4494323730469 C 1738.881469726562 245.33740234375 1738.71533203125 245.2141571044922 1738.556884765625 245.0802154541016 C 1737.657958984375 244.3197326660156 1737.068725585938 243.2642517089844 1736.896850585938 242.1069946289062 C 1736.440063476562 239.2091217041016 1735.089111328125 236.4789276123047 1733.092407226562 234.4188537597656 L 1733.089965820312 234.416259765625 L 1733.08740234375 234.4136352539062 C 1729.6123046875 230.8021392822266 1727.672485351562 226.0566101074219 1727.625366210938 221.0512390136719 C 1727.597412109375 218.3955688476562 1728.087524414062 215.8162841796875 1729.082275390625 213.3872375488281 C 1730.043823242188 211.0389862060547 1731.434814453125 208.9284973144531 1733.216552734375 207.1143798828125 C 1734.999633789062 205.2988433837891 1737.086791992188 203.868896484375 1739.420166015625 202.8642425537109 C 1741.833251953125 201.8252563476562 1744.405639648438 201.2883148193359 1747.06591796875 201.2683563232422 C 1747.115600585938 201.2679748535156 1747.166259765625 201.2677764892578 1747.2158203125 201.2677764892578 C 1749.8564453125 201.2677764892578 1752.418701171875 201.7857971191406 1754.83154296875 202.8074188232422 C 1757.16064453125 203.7936248779297 1759.251831054688 205.2050628662109 1761.046875 207.0025482177734 C 1762.841552734375 208.799560546875 1764.250732421875 210.8926849365234 1765.235229492188 213.2238159179688 C 1766.254760742188 215.6377105712891 1766.771728515625 218.2006988525391 1766.771728515625 220.8415832519531 C 1766.771728515625 225.9421997070312 1764.820068359375 230.7687377929688 1761.2763671875 234.43212890625 C 1759.249755859375 236.5355682373047 1757.94287109375 239.1856384277344 1757.499633789062 242.0929412841797 L 1757.4990234375 242.0965118408203 L 1757.49853515625 242.10009765625 C 1757.318237304688 243.2543640136719 1756.728759765625 244.3082122802734 1755.838745117188 245.0675048828125 C 1755.673461914062 245.2085113525391 1755.499633789062 245.3377227783203 1755.318725585938 245.4546813964844 C 1755.6240234375 245.6311340332031 1755.907592773438 245.8488006591797 1756.162109375 246.1046447753906 C 1756.916381835938 246.8625946044922 1757.331665039062 247.8699951171875 1757.331665039062 248.9412536621094 L 1757.331665039062 251.0259094238281 C 1757.331665039062 252.3036499023438 1756.871948242188 253.5391387939453 1756.037231445312 254.5048370361328 C 1755.51953125 255.1036987304688 1754.879638671875 255.5742034912109 1754.1689453125 255.8880462646484 L 1753.944091796875 256.7171020507812 C 1753.428588867188 258.6154174804688 1751.699096679688 259.9407348632812 1749.738159179688 259.9407348632812 Z M 1786.885009765625 224.808837890625 L 1779.94091796875 224.808837890625 C 1777.7451171875 224.808837890625 1775.958740234375 223.0225524902344 1775.958740234375 220.826904296875 C 1775.958740234375 218.6312408447266 1777.7451171875 216.8449401855469 1779.94091796875 216.8449401855469 L 1786.885009765625 216.8449401855469 C 1789.080688476562 216.8449401855469 1790.867065429688 218.6312408447266 1790.867065429688 220.826904296875 C 1790.867065429688 223.0225524902344 1789.080688476562 224.808837890625 1786.885009765625 224.808837890625 Z M 1714.892333984375 224.808837890625 L 1707.947998046875 224.808837890625 C 1705.752197265625 224.808837890625 1703.9658203125 223.0225524902344 1703.9658203125 220.826904296875 C 1703.9658203125 218.6312408447266 1705.752197265625 216.8449401855469 1707.947998046875 216.8449401855469 L 1714.892333984375 216.8449401855469 C 1717.087768554688 216.8449401855469 1718.873901367188 218.6312408447266 1718.873901367188 220.826904296875 C 1718.873901367188 221.8935852050781 1718.460693359375 222.8943481445312 1717.710327148438 223.6448516845703 C 1716.959838867188 224.3954620361328 1715.958984375 224.808837890625 1714.892333984375 224.808837890625 Z M 1723.784912109375 201.4711761474609 C 1722.735961914062 201.4711761474609 1721.712280273438 201.0488739013672 1720.976196289062 200.3125762939453 L 1716.045654296875 195.3967590332031 C 1714.49072265625 193.8417358398438 1714.49072265625 191.3150482177734 1716.04345703125 189.7621612548828 C 1716.797485351562 189.0080871582031 1717.797607421875 188.5927734375 1718.859741210938 188.5927734375 C 1719.921752929688 188.5927734375 1720.921875 189.008056640625 1721.675903320312 189.7621154785156 L 1726.593994140625 194.6803131103516 C 1728.146850585938 196.2332153320312 1728.146850585938 198.7599334716797 1726.593994140625 200.3127899169922 C 1725.858154296875 201.0488891601562 1724.834228515625 201.4711761474609 1723.784912109375 201.4711761474609 Z M 1771.0263671875 201.0364685058594 C 1769.981567382812 201.0364685058594 1768.988525390625 200.6346740722656 1768.230224609375 199.9051055908203 L 1768.21630859375 199.8917236328125 L 1768.202758789062 199.8780822753906 C 1766.64990234375 198.3252105712891 1766.64990234375 195.7985076904297 1768.20263671875 194.2456359863281 L 1773.12109375 189.3274078369141 C 1773.875122070312 188.5733489990234 1774.875244140625 188.1580505371094 1775.937255859375 188.1580505371094 C 1776.999389648438 188.1580505371094 1777.99951171875 188.5733489990234 1778.753662109375 189.3274688720703 C 1779.507690429688 190.0813140869141 1779.923095703125 191.0815734863281 1779.923095703125 192.1436920166016 C 1779.923095703125 193.2058258056641 1779.507690429688 194.2060699462891 1778.753295898438 194.9601593017578 L 1773.83544921875 199.8780975341797 C 1773.099365234375 200.6142578125 1772.075439453125 201.0364685058594 1771.0263671875 201.0364685058594 Z M 1747.198364257812 192.1580810546875 C 1745.002685546875 192.1580810546875 1743.216430664062 190.3717803955078 1743.216430664062 188.1761169433594 L 1743.216430664062 181.23193359375 C 1743.216430664062 180.1651763916016 1743.629760742188 179.1643829345703 1744.380249023438 178.4138793945312 C 1745.130737304688 177.6633605957031 1746.131591796875 177.2500152587891 1747.198364257812 177.2500152587891 C 1749.39404296875 177.2500152587891 1751.180419921875 179.0362854003906 1751.180419921875 181.23193359375 L 1751.180419921875 188.1761169433594 C 1751.180419921875 190.3717803955078 1749.39404296875 192.1580810546875 1747.198364257812 192.1580810546875 Z" stroke="none"/><path d="M 1749.738159179688 257.9407348632812 C 1750.809692382812 257.9407348632812 1751.734741210938 257.2213439941406 1752.013793945312 256.1936645507812 L 1752.52734375 254.2998046875 C 1754.113037109375 254.06494140625 1755.331665039062 252.6849060058594 1755.331665039062 251.0259094238281 L 1755.331665039062 248.9412536621094 C 1755.331665039062 247.825439453125 1754.436157226562 246.929931640625 1753.320190429688 246.9152221679688 L 1741.061401367188 246.9152221679688 C 1739.94580078125 246.9152221679688 1739.050170898438 247.8107604980469 1739.050170898438 248.9265441894531 L 1739.050170898438 251.0112457275391 C 1739.050170898438 252.6849060058594 1740.268798828125 254.0502624511719 1741.869018554688 254.2998046875 L 1742.3681640625 256.1936645507812 C 1742.647094726562 257.2213439941406 1743.572143554688 257.9407348632812 1744.643798828125 257.9407348632812 L 1749.738159179688 257.9407348632812 M 1752.645141601562 244.2432861328125 C 1754.083740234375 244.2432861328125 1755.302368164062 243.200927734375 1755.5224609375 241.79150390625 C 1756.021606445312 238.5176239013672 1757.519165039062 235.4492950439453 1759.8388671875 233.0415802001953 C 1762.892211914062 229.8851470947266 1764.771728515625 225.5835723876953 1764.771728515625 220.8415832519531 C 1764.771728515625 211.1379699707031 1756.917114257812 203.2677917480469 1747.215942382812 203.2677917480469 C 1747.171264648438 203.2677917480469 1747.125610351562 203.2679595947266 1747.080932617188 203.2682952880859 C 1737.30322265625 203.3416900634766 1729.522338867188 211.2548065185547 1729.625244140625 221.0324096679688 C 1729.669067382812 225.6863555908203 1731.53369140625 229.9145050048828 1734.528564453125 233.0268859863281 C 1736.848022460938 235.4199371337891 1738.3603515625 238.5323333740234 1738.874145507812 241.8062133789062 C 1739.079833984375 243.2156372070312 1740.312866210938 244.2432861328125 1741.73681640625 244.2432861328125 L 1752.645141601562 244.2432861328125 M 1747.198364257812 208.2158203125 C 1748.299438476562 208.2158203125 1749.180419921875 209.1113739013672 1749.180419921875 210.1977844238281 C 1749.180419921875 210.4554290771484 1749.132202148438 210.7010040283203 1749.1083984375 210.7323913574219 C 1748.756103515625 211.6628875732422 1748.041870117188 212.1797180175781 1747.198364257812 212.1797180175781 C 1745.525756835938 212.1797180175781 1743.959838867188 212.6537780761719 1742.967529296875 213.2711334228516 L 1742.901733398438 213.310546875 L 1742.74609375 213.4046783447266 C 1740.11865234375 215.0501861572266 1738.477783203125 217.7847137451172 1738.477783203125 220.9003143310547 C 1738.477783203125 222.0014038085938 1737.58203125 222.8822479248047 1736.495849609375 222.8822479248047 C 1735.394775390625 222.8822479248047 1734.514038085938 221.9867095947266 1734.514038085938 220.9003143310547 C 1734.514038085938 213.8974304199219 1740.2099609375 208.2158203125 1747.198364257812 208.2158203125 M 1786.885009765625 222.808837890625 C 1787.971313476562 222.808837890625 1788.867065429688 221.9279632568359 1788.867065429688 220.826904296875 C 1788.867065429688 219.7404937744141 1787.986083984375 218.8449401855469 1786.885009765625 218.8449401855469 L 1779.94091796875 218.8449401855469 C 1778.854614257812 218.8449401855469 1777.958740234375 219.7258148193359 1777.958740234375 220.826904296875 C 1777.958740234375 221.9133148193359 1778.83984375 222.808837890625 1779.94091796875 222.808837890625 L 1786.885009765625 222.808837890625 M 1714.892333984375 222.808837890625 C 1715.9931640625 222.808837890625 1716.873901367188 221.9279632568359 1716.873901367188 220.826904296875 C 1716.873901367188 219.7404937744141 1715.9931640625 218.8449401855469 1714.892333984375 218.8449401855469 L 1707.947998046875 218.8449401855469 C 1706.861328125 218.8449401855469 1705.9658203125 219.7258148193359 1705.9658203125 220.826904296875 C 1705.9658203125 221.9133148193359 1706.846801757812 222.808837890625 1707.947998046875 222.808837890625 L 1714.892333984375 222.808837890625 M 1723.784912109375 199.4711761474609 C 1724.284301757812 199.4711761474609 1724.798217773438 199.2803039550781 1725.179809570312 198.8985900878906 C 1725.957885742188 198.1204986572266 1725.957885742188 196.8726196289062 1725.179809570312 196.0945129394531 L 1720.26171875 191.1763305664062 C 1719.872680664062 190.7872924804688 1719.3662109375 190.5927734375 1718.859741210938 190.5927734375 C 1718.353271484375 190.5927734375 1717.8466796875 190.7872924804688 1717.457763671875 191.1763305664062 C 1716.6796875 191.9544525146484 1716.6796875 193.2023162841797 1717.457763671875 193.9804229736328 L 1722.390625 198.8985900878906 C 1722.772216796875 199.2803039550781 1723.2861328125 199.4711761474609 1723.784912109375 199.4711761474609 M 1771.0263671875 199.0364685058594 C 1771.525756835938 199.0364685058594 1772.03955078125 198.8456115722656 1772.421264648438 198.4638977050781 L 1777.33935546875 193.5457305908203 C 1778.11767578125 192.7676391601562 1778.11767578125 191.5197448730469 1777.33935546875 190.7416381835938 C 1776.950317382812 190.3525848388672 1776.44384765625 190.1580657958984 1775.937377929688 190.1580657958984 C 1775.430786132812 190.1580657958984 1774.92431640625 190.3525848388672 1774.535278320312 190.7416381835938 L 1769.616943359375 195.6598052978516 C 1768.8388671875 196.4379119873047 1768.8388671875 197.685791015625 1769.616943359375 198.4638977050781 C 1770.013671875 198.8456115722656 1770.5126953125 199.0364685058594 1771.0263671875 199.0364685058594 M 1747.198364257812 190.1580810546875 C 1748.28466796875 190.1580810546875 1749.180419921875 189.2772064208984 1749.180419921875 188.1761322021484 L 1749.180419921875 181.23193359375 C 1749.180419921875 180.1455535888672 1748.299438476562 179.2500152587891 1747.198364257812 179.2500152587891 C 1746.09716796875 179.2500152587891 1745.216430664062 180.1308746337891 1745.216430664062 181.23193359375 L 1745.216430664062 188.1761322021484 C 1745.216430664062 189.2772064208984 1746.111694335938 190.1580810546875 1747.198364257812 190.1580810546875 M 1749.738159179688 261.9407348632812 L 1744.643798828125 261.9407348632812 C 1741.781982421875 261.9407348632812 1739.2587890625 260.00830078125 1738.5078125 257.2414245605469 L 1738.505249023438 257.2318725585938 C 1737.885375976562 256.8467102050781 1737.322265625 256.3688659667969 1736.838012695312 255.810791015625 C 1735.685180664062 254.4818267822266 1735.050170898438 252.7773132324219 1735.050170898438 251.0112457275391 L 1735.050170898438 248.9265441894531 C 1735.050170898438 247.654052734375 1735.441284179688 246.44287109375 1736.16650390625 245.4307556152344 C 1735.515991210938 244.5451354980469 1735.085205078125 243.5110931396484 1734.920166015625 242.4112548828125 C 1734.52587890625 239.9194488525391 1733.3671875 237.575927734375 1731.65625 235.810791015625 L 1731.651245117188 235.8056030273438 L 1731.646240234375 235.8003845214844 C 1727.815673828125 231.8194732666016 1725.677368164062 226.588134765625 1725.625366210938 221.0700836181641 C 1725.5947265625 218.1481781005859 1726.135009765625 215.3068084716797 1727.2314453125 212.6293029785156 C 1728.291748046875 210.0399780273438 1729.825317382812 207.7129821777344 1731.789672851562 205.7129669189453 C 1733.75537109375 203.7115020751953 1736.056518554688 202.1349945068359 1738.629272460938 201.0272827148438 C 1741.288818359375 199.8821716308594 1744.122192382812 199.2903900146484 1747.050903320312 199.2684173583984 C 1747.105102539062 199.2679901123047 1747.1611328125 199.2677764892578 1747.215942382812 199.2677764892578 C 1750.125854492188 199.2677764892578 1752.950561523438 199.8390502929688 1755.611328125 200.9657135009766 C 1758.179077148438 202.0529174804688 1760.48388671875 203.6085052490234 1762.462036132812 205.5892639160156 C 1764.439575195312 207.5693511962891 1765.992431640625 209.8761749267578 1767.077758789062 212.4456787109375 C 1768.201782226562 215.1071472167969 1768.771728515625 217.9319458007812 1768.771728515625 220.8415832519531 C 1768.771728515625 226.4618682861328 1766.621704101562 231.7806091308594 1762.717895507812 235.8184356689453 C 1760.97802734375 237.6250305175781 1759.857177734375 239.8989562988281 1759.476806640625 242.3943939208984 L 1759.475708007812 242.4015197753906 L 1759.474609375 242.4086456298828 C 1759.30224609375 243.5118865966797 1758.864868164062 244.5498504638672 1758.2099609375 245.4372863769531 C 1758.938598632812 246.4520568847656 1759.331665039062 247.6666107177734 1759.331665039062 248.9412536621094 L 1759.331665039062 251.0259094238281 C 1759.331665039062 252.7838134765625 1758.698974609375 254.4838104248047 1757.55029296875 255.812744140625 C 1757.062744140625 256.3767395019531 1756.496215820312 256.858154296875 1755.873291015625 257.2445068359375 C 1755.120361328125 260.0102844238281 1752.598266601562 261.9407348632812 1749.738159179688 261.9407348632812 Z M 1786.885009765625 226.808837890625 L 1779.94091796875 226.808837890625 C 1776.642333984375 226.808837890625 1773.958740234375 224.1253509521484 1773.958740234375 220.826904296875 C 1773.958740234375 217.5284423828125 1776.642333984375 214.8449401855469 1779.94091796875 214.8449401855469 L 1786.885009765625 214.8449401855469 C 1790.183471679688 214.8449401855469 1792.867065429688 217.5284423828125 1792.867065429688 220.826904296875 C 1792.867065429688 224.1253509521484 1790.183471679688 226.808837890625 1786.885009765625 226.808837890625 Z M 1714.892333984375 226.808837890625 L 1707.947998046875 226.808837890625 C 1704.6494140625 226.808837890625 1701.9658203125 224.1253509521484 1701.9658203125 220.826904296875 C 1701.9658203125 217.5284423828125 1704.6494140625 214.8449401855469 1707.947998046875 214.8449401855469 L 1714.892333984375 214.8449401855469 C 1718.190551757812 214.8449401855469 1720.873901367188 217.5284423828125 1720.873901367188 220.826904296875 C 1720.873901367188 222.427734375 1720.252685546875 223.9307098388672 1719.124633789062 225.0589599609375 C 1717.996337890625 226.1873779296875 1716.493286132812 226.808837890625 1714.892333984375 226.808837890625 Z M 1723.784912109375 203.4711761474609 C 1722.209350585938 203.4711761474609 1720.670043945312 202.8352813720703 1719.561767578125 201.7265472412109 L 1714.633544921875 196.8130645751953 L 1714.63134765625 196.8109283447266 L 1714.629272460938 196.8087615966797 C 1713.497436523438 195.6769561767578 1712.874145507812 194.174560546875 1712.874145507812 192.5783843994141 C 1712.874145507812 190.9822082519531 1713.497436523438 189.4798278808594 1714.629272460938 188.3479919433594 C 1715.760986328125 187.2161407470703 1717.263427734375 186.5927734375 1718.859741210938 186.5927734375 C 1720.455932617188 186.5927734375 1721.958374023438 187.2160797119141 1723.090087890625 188.347900390625 L 1728.00830078125 193.26611328125 C 1729.140014648438 194.3979644775391 1729.763427734375 195.9003601074219 1729.763427734375 197.4965515136719 C 1729.763427734375 199.0927886962891 1729.140014648438 200.5951843261719 1728.00830078125 201.7269897460938 C 1726.900390625 202.8352813720703 1725.36083984375 203.4711761474609 1723.784912109375 203.4711761474609 Z M 1771.0263671875 203.0364685058594 C 1769.461791992188 203.0364685058594 1767.976318359375 202.4362335205078 1766.843627929688 201.3463439941406 L 1766.815795898438 201.319580078125 L 1766.788452148438 201.2922973632812 C 1765.65673828125 200.1604766845703 1765.033447265625 198.6580810546875 1765.033447265625 197.0618591308594 C 1765.033447265625 195.4656219482422 1765.65673828125 193.9632263183594 1766.788452148438 192.8314056396484 L 1771.706909179688 187.9131622314453 C 1772.838623046875 186.7814025878906 1774.341064453125 186.1580657958984 1775.937377929688 186.1580657958984 C 1777.533569335938 186.1580657958984 1779.036010742188 186.7814025878906 1780.167846679688 187.9132080078125 C 1781.299560546875 189.0446929931641 1781.923095703125 190.5472412109375 1781.923095703125 192.1436767578125 C 1781.923095703125 193.7401580810547 1781.299560546875 195.2427062988281 1780.167358398438 196.3745727539062 L 1775.249755859375 201.2922973632812 C 1774.141235351562 202.4007568359375 1772.601928710938 203.0364685058594 1771.0263671875 203.0364685058594 Z M 1747.198364257812 194.1580810546875 C 1743.89990234375 194.1580810546875 1741.216430664062 191.4745788574219 1741.216430664062 188.1761322021484 L 1741.216430664062 181.23193359375 C 1741.216430664062 179.6309967041016 1741.837768554688 178.1279602050781 1742.965942382812 176.9997100830078 C 1744.09423828125 175.8713989257812 1745.597290039062 175.2500152587891 1747.198364257812 175.2500152587891 C 1750.496826171875 175.2500152587891 1753.180419921875 177.9335021972656 1753.180419921875 181.23193359375 L 1753.180419921875 188.1761322021484 C 1753.180419921875 191.4745788574219 1750.496826171875 194.1580810546875 1747.198364257812 194.1580810546875 Z" stroke="none" fill="#4591ff"/></g><path d="M-3344.112-3219.085a2.325,2.325,0,0,1-3.94.594c-2.535-2.259,1.468-9.672,3.94-11.691s6.457-4.6,10.013-3.674,1.8,4.108-1.723,4.507a9.131,9.131,0,0,0-7.4,5.309A13.811,13.811,0,0,0-3344.112-3219.085Z" transform="translate(3986.573 5860.271)" fill="#c3fdf2"/></g></svg>