<svg xmlns="http://www.w3.org/2000/svg" width="91.55" height="75.352" viewBox="0 0 91.55 75.352"><g transform="translate(-2.454 -1.388)"><path d="M313.743,717.929l-9.771,26.962v3.541a3.041,3.041,0,0,0,1.5,2.679l21.7,11.978a12.522,12.522,0,0,0,12.219,0l21.7-11.978a3.041,3.041,0,0,0,1.5-2.679v-3.541l-9.771-26.962-4.886-10.784H318.63Z" transform="translate(-284.833 -687.939)" fill="#1546a1"/><path d="M303.972,774.276v3.541a3.041,3.041,0,0,0,1.5,2.679l21.552,11.893a12.835,12.835,0,0,0,12.526,0L361.1,780.5a3.041,3.041,0,0,0,1.5-2.679v-3.541L339.549,787a12.835,12.835,0,0,1-12.526,0Z" transform="translate(-284.833 -717.325)" fill="#4591ff"/><path d="M315.65,665.385l-42.716,22.652a3.336,3.336,0,0,0,0,5.8l42.716,22.652a2.9,2.9,0,0,0,2.736,0L361.1,693.841a3.336,3.336,0,0,0,0-5.8l-42.716-22.652A2.9,2.9,0,0,0,315.65,665.385Z" transform="translate(-268.788 -663.654)" fill="#4591ff"/><path d="M322.171,674.763l-35.78,19.208a1.447,1.447,0,0,0,0,2.5l35.78,19.209a3.058,3.058,0,0,0,2.912,0l35.78-19.209a1.447,1.447,0,0,0,0-2.5l-35.78-19.208A3.058,3.058,0,0,0,322.171,674.763Z" transform="translate(-275.398 -667.938)" fill="#1546a1"/><path d="M360.649,698.106c1.161,0,1.651-.658,1.432-1.292a3.939,3.939,0,0,0-6.989-.9,1.421,1.421,0,0,0,1.2,2.2Z" transform="translate(-310.152 -678.411)" fill="#c3fdf2"/><path d="M422.837,746.631" transform="translate(-342.942 -703.099)" fill="#ecf4ff"/><path d="M422.837,746.631" transform="translate(-342.942 -703.099)" fill="#ecf4ff"/><path d="M422.837,746.631" transform="translate(-342.942 -703.099)" fill="#ecf4ff"/><path d="M398.7,729.524l-.026-14.746L363.7,697.67l-2.408,1.743L395.9,716.162v13.362Z" transform="translate(-316 -680.723)" fill="#c3fdf2"/><g transform="translate(79.13 42.876)"><path d="M425.666,754.754H422.1l-.424,6.6a.936.936,0,0,0,.919,1.01h2.577a.936.936,0,0,0,.919-1.01Z" transform="translate(-421.562 -750.012)" fill="#c3fdf2"/><path d="M424,761.351l.424-6.6H422.1l-.424,6.6a.936.936,0,0,0,.919,1.01h2.322A.937.937,0,0,1,424,761.351Z" transform="translate(-421.562 -750.012)" fill="#c3fdf2"/><path d="M424.622,746.321h-1.651a1.5,1.5,0,0,0-1.5,1.5v2.969a.489.489,0,0,0,.489.489h3.664a.489.489,0,0,0,.489-.489v-2.969a1.5,1.5,0,0,0-1.5-1.5Z" transform="translate(-421.475 -746.321)" fill="#1546a1"/><path d="M424.1,750.785v-2.969a1.5,1.5,0,0,1,1.008-1.412,1.474,1.474,0,0,0-.487-.084h-1.651a1.5,1.5,0,0,0-1.5,1.5v2.969a.489.489,0,0,0,.489.489h2.626A.489.489,0,0,1,424.1,750.785Z" transform="translate(-421.475 -746.321)" fill="#1546a1"/></g></g></svg>