<svg xmlns="http://www.w3.org/2000/svg" xmlns:xlink="http://www.w3.org/1999/xlink" width="834" height="314" viewBox="0 0 834 314"><defs><clipPath id="a"><path d="M20,0H834a0,0,0,0,1,0,0V294a20,20,0,0,1-20,20H20A20,20,0,0,1,0,294V20A20,20,0,0,1,20,0Z" transform="translate(223 1868)" fill="#e0eeff"/></clipPath></defs><g transform="translate(-223 -1868)" clip-path="url(#a)"><path d="M114.5,0H225.968A4.032,4.032,0,0,1,230,4.032V114.5A114.5,114.5,0,0,1,115.5,229h-1A114.5,114.5,0,0,1,0,114.5v0A114.5,114.5,0,0,1,114.5,0Z" transform="translate(46 1953)" fill="#ff8d8d" opacity="0.525"/><rect width="216" height="215" rx="107.5" transform="translate(548 2297) rotate(180)" fill="#2752db" opacity="0.628"/><path d="M153.249,0A153.249,153.249,0,0,1,306.5,153.249v.866A153.249,153.249,0,0,1,153.249,307.364H11.494A11.494,11.494,0,0,1,0,295.87V153.249A153.249,153.249,0,0,1,153.249,0Z" transform="translate(723.832 1751.814) rotate(90)" fill="#c3fdf2" opacity="0.562"/><path d="M198,0c109.35,0,198,88.646,198,198v1.085c0,109.35-88.646,198-198,198S0,308.432,0,199.081V198C0,88.646,88.646,0,198,0Z" transform="translate(1119.825 2310) rotate(180)" fill="#ffefd1" opacity="0.997"/></g></svg>