<svg xmlns="http://www.w3.org/2000/svg" width="74.828" height="74.494" viewBox="0 0 74.828 74.494"><g transform="translate(-591 -1878.555)"><g transform="translate(591 1878.555)"><path d="M677.891,404.954h4.094l2.212,32.97H671.585l2.212-32.97h4.094" transform="translate(-640.574 -379.442)" fill="#c3fdf2"/><path d="M633.1,404.954h4.094l2.212,32.97H626.791L629,404.954H633.1" transform="translate(-616.344 -379.442)" fill="#4591ff"/><path d="M722.987,404.954h4.094l2.212,32.97H716.681l2.212-32.97h4.094" transform="translate(-664.968 -379.442)" fill="#4591ff"/><path d="M1.573,0H11.04a1.573,1.573,0,0,1,1.573,1.573V4.261a0,0,0,0,1,0,0H0a0,0,0,0,1,0,0V1.573A1.573,1.573,0,0,1,1.573,0Z" transform="translate(23.06 28.024) rotate(180)" fill="#1546a1"/><path d="M1.573,0H11.04a1.573,1.573,0,0,1,1.573,1.573V4.261a0,0,0,0,1,0,0H0a0,0,0,0,1,0,0V1.573A1.573,1.573,0,0,1,1.573,0Z" transform="translate(43.641 28.024) rotate(180)" fill="#1546a1"/><path d="M1.573,0H11.04a1.573,1.573,0,0,1,1.573,1.573V4.261a0,0,0,0,1,0,0H0a0,0,0,0,1,0,0V1.573A1.573,1.573,0,0,1,1.573,0Z" transform="translate(64.326 28.024) rotate(180)" fill="#1546a1"/><path d="M1.8,0H14.755a1.8,1.8,0,0,1,1.8,1.8V4.261a0,0,0,0,1,0,0H0a0,0,0,0,1,0,0V1.8A1.8,1.8,0,0,1,1.8,0Z" transform="translate(8.475 57.686)" fill="#1546a1"/><path d="M1.8,0H14.755a1.8,1.8,0,0,1,1.8,1.8V4.261a0,0,0,0,1,0,0H0a0,0,0,0,1,0,0V1.8A1.8,1.8,0,0,1,1.8,0Z" transform="translate(29.056 57.686)" fill="#1546a1"/><path d="M1.8,0H14.755a1.8,1.8,0,0,1,1.8,1.8V4.261a0,0,0,0,1,0,0H0a0,0,0,0,1,0,0V1.8A1.8,1.8,0,0,1,1.8,0Z" transform="translate(49.741 57.686)" fill="#1546a1"/><path d="M3.6,0H62.427a3.6,3.6,0,0,1,3.6,3.6v.661a0,0,0,0,1,0,0H0a0,0,0,0,1,0,0V3.6A3.6,3.6,0,0,1,3.6,0Z" transform="translate(4.304 61.968)" fill="#2478ff"/><rect width="74.828" height="8.265" rx="4.133" transform="translate(0 66.229)" fill="#1546a1"/><path d="M677.443,374.269a2.24,2.24,0,0,0,2.22-2.537c-1.691-12.553-15.793-22.35-32.94-22.35-17.055,0-31.1,9.692-32.911,22.149a2.409,2.409,0,0,0,2.395,2.738Z" transform="translate(-609.309 -349.382)" fill="#1546a1"/><ellipse cx="3.815" cy="3.815" rx="3.815" ry="3.815" transform="translate(33.502 8.94)" fill="#c3fdf2"/></g></g></svg>