<svg xmlns="http://www.w3.org/2000/svg" width="23.741" height="23.736" viewBox="0 0 23.741 23.736"><path d="M11.868,8.02a6.086,6.086,0,1,0,6.086,6.086A6.076,6.076,0,0,0,11.868,8.02Zm0,10.042a3.956,3.956,0,1,1,3.956-3.956A3.963,3.963,0,0,1,11.868,18.062ZM19.623,7.771A1.419,1.419,0,1,1,18.2,6.351,1.416,1.416,0,0,1,19.623,7.771Zm4.031,1.44a7.026,7.026,0,0,0-1.917-4.973,7.069,7.069,0,0,0-4.973-1.917c-1.96-.111-7.833-.111-9.793,0A7.062,7.062,0,0,0,2,4.232,7.046,7.046,0,0,0,.08,9.206c-.111,1.96-.111,7.833,0,9.793A7.026,7.026,0,0,0,2,23.972,7.078,7.078,0,0,0,6.97,25.889c1.96.111,7.833.111,9.793,0a7.026,7.026,0,0,0,4.973-1.917A7.069,7.069,0,0,0,23.653,19c.111-1.96.111-7.828,0-9.788ZM21.122,21.1a4,4,0,0,1-2.256,2.256c-1.562.62-5.27.477-7,.477s-5.439.138-7-.477A4,4,0,0,1,2.617,21.1c-.62-1.562-.477-5.27-.477-7s-.138-5.439.477-7A4,4,0,0,1,4.873,4.853c1.562-.62,5.27-.477,7-.477s5.439-.138,7,.477a4,4,0,0,1,2.256,2.256c.62,1.562.477,5.27.477,7s.143,5.439-.477,7Z" transform="translate(0.004 -2.237)" fill="#fff"/></svg>