<svg xmlns="http://www.w3.org/2000/svg" width="70.568" height="70.725" viewBox="0 0 70.568 70.725"><path d="M315.66,430.034l-22.589.145a13.009,13.009,0,0,0-12.926,13.009v17.859a4.567,4.567,0,0,0,4.573,4.567l60.546-.086a5.457,5.457,0,0,0,5.449-5.457V443.184a13.009,13.009,0,0,0-12.926-13.009Z" transform="translate(-280.145 -394.888)" fill="#4591ff"/><path d="M320.472,439.488l-20.2.111c-6.395.035-11.557,4.519-11.557,10.038v13.78a3.835,3.835,0,0,0,4.089,3.524l54.136-.066c2.692,0,4.872-1.888,4.872-4.211V449.635c0-5.519-5.163-10-11.557-10.037Z" transform="translate(-284.982 -400.223)" fill="#1546a1"/><ellipse cx="15.73" cy="15.73" rx="15.73" ry="15.73" transform="translate(19.698)" fill="#4591ff"/><ellipse cx="10.597" cy="10.597" rx="10.597" ry="10.597" transform="translate(24.831 5.133)" fill="#c3fdf2"/><ellipse cx="2.864" cy="2.864" rx="2.864" ry="2.864" transform="translate(32.42 44.757)" fill="#c3fdf2"/><ellipse cx="2.864" cy="2.864" rx="2.864" ry="2.864" transform="translate(32.42 56.502)" fill="#c3fdf2"/></svg>