<svg xmlns="http://www.w3.org/2000/svg" width="76.727" height="67.764" viewBox="0 0 76.727 67.764"><g transform="translate(-1389.424 -1023.729)"><g transform="translate(0 0)" fill="#174dfd" stroke-miterlimit="10"><path d="M 1431.538940429688 1089.242431640625 C 1430.152221679688 1089.242431640625 1428.823852539062 1088.690795898438 1427.8896484375 1087.728149414062 L 1423.207763671875 1083.046508789062 L 1422.003295898438 1081.842041015625 L 1422.835693359375 1080.35595703125 C 1423.358642578125 1079.422241210938 1423.556030273438 1078.279052734375 1423.3916015625 1077.13671875 C 1423.22705078125 1075.993530273438 1422.713745117188 1074.954711914062 1421.946044921875 1074.211547851562 L 1421.931518554688 1074.197387695312 L 1421.917236328125 1074.18310546875 L 1421.850952148438 1074.116577148438 C 1421.3251953125 1073.591064453125 1420.702026367188 1073.189819335938 1420.002075195312 1072.92724609375 L 1417.198852539062 1071.875610351562 L 1418.988647460938 1069.475463867188 C 1420.438354492188 1067.531494140625 1420.1884765625 1064.469604492188 1418.443115234375 1062.789306640625 L 1418.42919921875 1062.775756835938 L 1418.415405273438 1062.762084960938 L 1418.348876953125 1062.69580078125 C 1417.360595703125 1061.70751953125 1416.046997070312 1061.164672851562 1414.6474609375 1061.164672851562 C 1413.95703125 1061.164672851562 1413.285522460938 1061.296508789062 1412.651489257812 1061.556518554688 L 1410.3486328125 1062.501098632812 L 1409.640625 1060.11474609375 C 1409.392944335938 1059.279907226562 1408.9501953125 1058.539306640625 1408.324584960938 1057.913696289062 L 1408.2587890625 1057.848022460938 L 1408.24169921875 1057.830932617188 L 1408.224975585938 1057.8134765625 C 1407.319946289062 1056.870361328125 1405.983642578125 1056.32958984375 1404.55859375 1056.32958984375 C 1403.133056640625 1056.32958984375 1401.79638671875 1056.870727539062 1400.891235351562 1057.814208984375 L 1400.875122070312 1057.8310546875 L 1400.858520507812 1057.847534179688 L 1400.670776367188 1058.035278320312 L 1399.079345703125 1059.626831054688 L 1397.488403320312 1058.034790039062 L 1397.098754882812 1057.644897460938 C 1395.3310546875 1055.877319335938 1393.961547851562 1053.812377929688 1393.02880859375 1051.508056640625 C 1392.128784179688 1049.284790039062 1391.67236328125 1046.935546875 1391.67236328125 1044.525634765625 C 1391.67236328125 1042.11572265625 1392.128784179688 1039.766479492188 1393.02880859375 1037.543212890625 C 1393.961669921875 1035.23876953125 1395.331176757812 1033.173828125 1397.099243164062 1031.405639648438 C 1398.867553710938 1029.637451171875 1400.932495117188 1028.267944335938 1403.23681640625 1027.335083007812 C 1405.460083007812 1026.435180664062 1407.809326171875 1025.978759765625 1410.21923828125 1025.978759765625 C 1412.629150390625 1025.978759765625 1414.978393554688 1026.435180664062 1417.20166015625 1027.335083007812 C 1419.506103515625 1028.267944335938 1421.571044921875 1029.637451171875 1423.339233398438 1031.405517578125 L 1427.141479492188 1035.207885742188 L 1428.755493164062 1036.822021484375 L 1427.118286132812 1038.41259765625 L 1419.904418945312 1045.421142578125 L 1419.8857421875 1045.439331054688 L 1419.866577148438 1045.457153320312 C 1418.786499023438 1046.458740234375 1418.159545898438 1047.953979492188 1418.146606445312 1049.559204101562 C 1418.133544921875 1051.165283203125 1418.73681640625 1052.67138671875 1419.801513671875 1053.69140625 L 1419.835693359375 1053.72412109375 L 1419.868408203125 1053.75830078125 C 1420.87890625 1054.811401367188 1422.368286132812 1055.415283203125 1423.954467773438 1055.415283203125 C 1425.540649414062 1055.415283203125 1427.02978515625 1054.811401367188 1428.040161132812 1053.758422851562 L 1428.056274414062 1053.74169921875 L 1428.072631835938 1053.725219726562 L 1430.5595703125 1051.238037109375 L 1430.561401367188 1051.236206054688 L 1430.563354492188 1051.234375 C 1431.025634765625 1050.774169921875 1431.639770507812 1050.520751953125 1432.29248046875 1050.520751953125 C 1432.944580078125 1050.520751953125 1433.558349609375 1050.773681640625 1434.0205078125 1051.233032226562 L 1434.023071289062 1051.235473632812 L 1434.025512695312 1051.238037109375 L 1448.907348632812 1066.11962890625 L 1448.907470703125 1066.119873046875 L 1448.937622070312 1066.14990234375 L 1448.93798828125 1066.150268554688 L 1448.93798828125 1066.150268554688 L 1449.453002929688 1066.665405273438 C 1450.349853515625 1067.536865234375 1450.86376953125 1068.774047851562 1450.86376953125 1070.064331054688 C 1450.863891601562 1071.356201171875 1450.348876953125 1072.5947265625 1449.450073242188 1073.466552734375 C 1448.548461914062 1074.359741210938 1447.352661132812 1074.8515625 1446.08056640625 1074.8515625 C 1444.818481445312 1074.8515625 1443.6318359375 1074.36767578125 1442.732666015625 1073.487670898438 C 1442.720336914062 1073.476928710938 1442.708129882812 1073.466186523438 1442.696044921875 1073.455200195312 L 1442.660888671875 1073.423828125 C 1443.481567382812 1074.338745117188 1443.9462890625 1075.562744140625 1443.946166992188 1076.835693359375 C 1443.946044921875 1078.215454101562 1443.400024414062 1079.537353515625 1442.4462890625 1080.470581054688 C 1441.512817382812 1081.4248046875 1440.190551757812 1081.97119140625 1438.810424804688 1081.97119140625 C 1437.46923828125 1081.97119140625 1436.182373046875 1081.455078125 1435.254150390625 1080.550170898438 C 1436.169189453125 1081.507446289062 1436.673828125 1082.757934570312 1436.6787109375 1084.089477539062 C 1436.683715820312 1085.46337890625 1436.155151367188 1086.754028320312 1435.189819335938 1087.726440429688 C 1434.255615234375 1088.690185546875 1432.926391601562 1089.242431640625 1431.538940429688 1089.242431640625 Z" stroke="none"/><path d="M 1431.538940429688 1086.992431640625 C 1432.292114257812 1086.992431640625 1433.045288085938 1086.7119140625 1433.583374023438 1086.151000976562 C 1434.72119140625 1085.015014648438 1434.706665039062 1083.164428710938 1433.562255859375 1082.038452148438 L 1429.394165039062 1077.870239257812 C 1428.515502929688 1076.991943359375 1428.515502929688 1075.567504882812 1429.394165039062 1074.689086914062 C 1429.833251953125 1074.25 1430.408935546875 1074.030395507812 1430.984619140625 1074.030395507812 C 1431.560302734375 1074.030395507812 1432.135986328125 1074.25 1432.5751953125 1074.689086914062 L 1436.765869140625 1078.879638671875 C 1437.304077148438 1079.440673828125 1438.057250976562 1079.72119140625 1438.810424804688 1079.72119140625 C 1439.563598632812 1079.72119140625 1440.316772460938 1079.440673828125 1440.854858398438 1078.879638671875 C 1441.9765625 1077.803588867188 1441.9765625 1075.866943359375 1440.854858398438 1074.79052734375 L 1436.64208984375 1070.57763671875 C 1435.763549804688 1069.699462890625 1435.763549804688 1068.27490234375 1436.64208984375 1067.396606445312 C 1437.081298828125 1066.957397460938 1437.656982421875 1066.73779296875 1438.232666015625 1066.73779296875 C 1438.808349609375 1066.73779296875 1439.384033203125 1066.957397460938 1439.8232421875 1067.396606445312 L 1444.036010742188 1071.609497070312 C 1444.091674804688 1071.665161132812 1444.144287109375 1071.722778320312 1444.19775390625 1071.77978515625 C 1444.227172851562 1071.80615234375 1444.257446289062 1071.8310546875 1444.285766601562 1071.859252929688 C 1444.780639648438 1072.354125976562 1445.430541992188 1072.6015625 1446.08056640625 1072.6015625 C 1446.73046875 1072.601440429688 1447.380615234375 1072.354125976562 1447.875244140625 1071.859497070312 C 1448.859985351562 1070.914428710938 1448.859985351562 1069.214599609375 1447.875244140625 1068.269653320312 L 1447.346435546875 1067.74072265625 C 1447.343139648438 1067.737670898438 1447.339965820312 1067.734252929688 1447.3369140625 1067.731201171875 L 1432.4345703125 1052.828979492188 C 1432.3955078125 1052.790161132812 1432.343994140625 1052.770751953125 1432.29248046875 1052.770751953125 C 1432.241088867188 1052.770751953125 1432.189697265625 1052.790161132812 1432.150634765625 1052.828979492188 L 1429.663696289062 1055.316162109375 C 1428.161010742188 1056.882202148438 1426.057739257812 1057.665283203125 1423.954467773438 1057.665283203125 C 1421.85107421875 1057.665283203125 1419.747802734375 1056.882202148438 1418.244995117188 1055.316162109375 C 1415.076416015625 1052.280639648438 1415.120727539062 1046.789794921875 1418.336547851562 1043.807373046875 L 1425.550415039062 1036.798828125 L 1421.748291015625 1032.99658203125 C 1418.569580078125 1029.817993164062 1414.394409179688 1028.228759765625 1410.21923828125 1028.228759765625 C 1406.044067382812 1028.228759765625 1401.868896484375 1029.817993164062 1398.690307617188 1032.99658203125 C 1392.333129882812 1039.353881835938 1392.333129882812 1049.697509765625 1398.690185546875 1056.054443359375 L 1399.079833984375 1056.4443359375 L 1399.267578125 1056.256591796875 C 1400.659912109375 1054.80517578125 1402.609252929688 1054.07958984375 1404.55859375 1054.07958984375 C 1406.507446289062 1054.07958984375 1408.456298828125 1054.804931640625 1409.848388671875 1056.255615234375 L 1409.915649414062 1056.32275390625 C 1410.809326171875 1057.216552734375 1411.448120117188 1058.29638671875 1411.797729492188 1059.474853515625 C 1412.708129882812 1059.101440429688 1413.677734375 1058.914672851562 1414.647338867188 1058.914672851562 C 1416.563110351562 1058.914672851562 1418.478637695312 1059.643676757812 1419.937133789062 1061.10205078125 L 1420.003662109375 1061.168334960938 C 1422.57763671875 1063.646362304688 1422.91796875 1067.970092773438 1420.792358398438 1070.820556640625 C 1421.760131835938 1071.18359375 1422.66748046875 1071.75146484375 1423.44482421875 1072.528442382812 L 1423.511108398438 1072.594970703125 C 1425.839721679688 1074.849365234375 1426.37353515625 1078.643798828125 1424.798706054688 1081.455444335938 L 1429.494506835938 1086.151000976562 C 1430.032592773438 1086.7119140625 1430.785766601562 1086.992431640625 1431.538940429688 1086.992431640625 M 1431.538940429688 1091.492431640625 C 1429.553588867188 1091.492431640625 1427.6435546875 1090.697387695312 1426.288696289062 1089.30908203125 L 1421.616821289062 1084.637573242188 L 1419.207763671875 1082.228637695312 L 1420.87255859375 1079.256469726562 C 1421.453857421875 1078.21875 1421.228759765625 1076.648681640625 1420.381103515625 1075.828125 L 1420.351806640625 1075.799682617188 L 1420.322998046875 1075.770874023438 L 1420.26220703125 1075.709838867188 C 1419.962036132812 1075.41015625 1419.608642578125 1075.182739257812 1419.211791992188 1075.033813476562 L 1413.605346679688 1072.930786132812 L 1417.184936523438 1068.130493164062 C 1417.963989257812 1067.085693359375 1417.819946289062 1065.3125 1416.882690429688 1064.41015625 L 1416.854736328125 1064.38330078125 L 1416.827392578125 1064.35595703125 L 1416.760864257812 1064.289672851562 L 1416.758056640625 1064.286865234375 L 1416.755249023438 1064.2841796875 C 1416.194580078125 1063.723510742188 1415.445922851562 1063.414672851562 1414.647338867188 1063.414672851562 C 1414.251220703125 1063.414672851562 1413.867065429688 1063.489868164062 1413.50537109375 1063.638305664062 L 1408.8994140625 1065.527465820312 L 1407.483520507812 1060.754638671875 C 1407.343627929688 1060.282958984375 1407.09130859375 1059.862426757812 1406.7333984375 1059.504516601562 L 1406.6689453125 1059.440185546875 L 1406.634887695312 1059.406127929688 L 1406.601440429688 1059.371337890625 C 1406.11865234375 1058.8681640625 1405.3740234375 1058.579467773438 1404.55859375 1058.579467773438 C 1403.742919921875 1058.579467773438 1402.997924804688 1058.868286132812 1402.514892578125 1059.371826171875 L 1402.482543945312 1059.405517578125 L 1402.449584960938 1059.438598632812 L 1402.261840820312 1059.626342773438 L 1399.078735351562 1062.809326171875 L 1395.896850585938 1059.625244140625 L 1395.507202148438 1059.2353515625 C 1387.396606445312 1051.125 1387.396606445312 1037.926391601562 1395.50830078125 1029.814575195312 C 1397.490966796875 1027.83203125 1399.80712890625 1026.296142578125 1402.392578125 1025.24951171875 C 1404.885375976562 1024.240478515625 1407.518676757812 1023.728820800781 1410.21923828125 1023.728820800781 C 1412.919921875 1023.728820800781 1415.553100585938 1024.240478515625 1418.046020507812 1025.24951171875 C 1420.631469726562 1026.296142578125 1422.947631835938 1027.83203125 1424.93017578125 1029.814575195312 L 1428.732421875 1033.616943359375 L 1431.960571289062 1036.84521484375 L 1428.686157226562 1040.0263671875 L 1421.472290039062 1047.034912109375 L 1421.434814453125 1047.0712890625 L 1421.396484375 1047.106811523438 C 1420.768920898438 1047.688842773438 1420.404541015625 1048.58935546875 1420.396484375 1049.577392578125 C 1420.388427734375 1050.566284179688 1420.738891601562 1051.4736328125 1421.358032226562 1052.066650390625 L 1421.426391601562 1052.132202148438 L 1421.491943359375 1052.200439453125 C 1422.080322265625 1052.813598632812 1422.977905273438 1053.165283203125 1423.954467773438 1053.165283203125 C 1424.930908203125 1053.165283203125 1425.828369140625 1052.813720703125 1426.416625976562 1052.200561523438 L 1426.44873046875 1052.167114257812 L 1426.481567382812 1052.134399414062 L 1428.968505859375 1049.647216796875 L 1428.972290039062 1049.643310546875 L 1428.97607421875 1049.639526367188 C 1429.862915039062 1048.7568359375 1431.040771484375 1048.270751953125 1432.29248046875 1048.270751953125 C 1433.542724609375 1048.270751953125 1434.719482421875 1048.755737304688 1435.606079101562 1049.636596679688 L 1435.611328125 1049.641845703125 L 1435.616577148438 1049.64697265625 L 1450.469360351562 1064.499633789062 L 1450.469360351562 1064.499633789062 L 1450.470703125 1064.5009765625 L 1450.518920898438 1064.549194335938 L 1450.540649414062 1064.571044921875 L 1450.54150390625 1064.57177734375 L 1451.033447265625 1065.06396484375 C 1452.356201171875 1066.356079101562 1453.11376953125 1068.175048828125 1453.11376953125 1070.064331054688 C 1453.113891601562 1071.957397460938 1452.353515625 1073.779907226562 1451.02587890625 1075.072631835938 C 1449.727294921875 1076.355224609375 1448.015991210938 1077.072631835938 1446.19140625 1077.100708007812 C 1446.124389648438 1078.978393554688 1445.348999023438 1080.768676757812 1444.037719726562 1082.061279296875 C 1442.711181640625 1083.407836914062 1440.85986328125 1084.189819335938 1438.927856445312 1084.22021484375 C 1438.899780273438 1086.1396484375 1438.145751953125 1087.938354492188 1436.794799804688 1089.303466796875 C 1435.439575195312 1090.695190429688 1433.526977539062 1091.492431640625 1431.538940429688 1091.492431640625 Z" stroke="none" fill="#4591ff"/></g><g transform="translate(-200.249 -5.937)" fill="#c3fdf2" stroke-miterlimit="10"><path d="M 1649.18017578125 1072.082275390625 L 1647.633056640625 1070.535034179688 L 1634.273681640625 1057.175659179688 L 1634.257202148438 1057.159301757812 L 1634.241088867188 1057.142456054688 C 1633.829467773438 1056.713500976562 1633.2099609375 1056.467407226562 1632.54150390625 1056.467407226562 C 1631.873046875 1056.467407226562 1631.253540039062 1056.713500976562 1630.841918945312 1057.142456054688 L 1630.825805664062 1057.159301757812 L 1630.809326171875 1057.17578125 L 1628.336547851562 1059.6484375 C 1627.281005859375 1060.737670898438 1625.776245117188 1061.361938476562 1624.203491210938 1061.361938476562 C 1622.629638671875 1061.361938476562 1621.123901367188 1060.737060546875 1620.068237304688 1059.646606445312 C 1618.965087890625 1058.53515625 1618.365112304688 1057.061767578125 1618.378173828125 1055.4951171875 C 1618.39111328125 1053.92138671875 1619.021118164062 1052.45166015625 1620.15234375 1051.357055664062 L 1634.032592773438 1037.871704101562 C 1635.71142578125 1036.189208984375 1637.673217773438 1034.88525390625 1639.863647460938 1033.99609375 C 1641.982421875 1033.136108398438 1644.221557617188 1032.700073242188 1646.518798828125 1032.700073242188 C 1648.809936523438 1032.700073242188 1651.043334960938 1033.1337890625 1653.156616210938 1033.989135742188 C 1655.347534179688 1034.8759765625 1657.310668945312 1036.177978515625 1658.991333007812 1037.859130859375 C 1665.854858398438 1044.722778320312 1665.865966796875 1055.902221679688 1659.015747070312 1062.779663085938 L 1658.992065429688 1062.803466796875 L 1658.967651367188 1062.826538085938 L 1650.77001953125 1070.578857421875 L 1649.18017578125 1072.082275390625 Z" stroke="none"/><path d="M 1646.518798828125 1034.950073242188 C 1642.567260742188 1034.950073242188 1638.615234375 1036.458129882812 1635.613525390625 1039.472778320312 L 1621.716918945312 1052.973999023438 C 1621.022705078125 1053.645751953125 1620.635986328125 1054.5478515625 1620.628051757812 1055.513916015625 C 1620.619995117188 1056.47998046875 1620.992065429688 1057.388549804688 1621.675048828125 1058.071533203125 C 1622.340576171875 1058.76513671875 1623.27197265625 1059.111938476562 1624.203491210938 1059.111938476562 C 1625.134643554688 1059.111938476562 1626.066040039062 1058.76513671875 1626.7314453125 1058.071533203125 L 1629.218383789062 1055.584716796875 C 1630.093017578125 1054.673095703125 1631.317138671875 1054.217407226562 1632.54150390625 1054.217407226562 C 1633.765625 1054.217407226562 1634.990112304688 1054.673217773438 1635.864624023438 1055.584716796875 L 1649.223999023438 1068.944091796875 L 1657.421630859375 1061.191772460938 C 1663.399780273438 1055.189819335938 1663.392944335938 1045.44287109375 1657.400146484375 1039.449951171875 C 1654.400512695312 1036.449462890625 1650.459838867188 1034.950073242188 1646.518798828125 1034.950073242188 M 1646.518798828125 1030.450073242188 C 1649.100708007812 1030.450073242188 1651.618041992188 1030.939086914062 1654.000854492188 1031.903564453125 C 1656.472900390625 1032.904174804688 1658.687377929688 1034.372680664062 1660.58251953125 1036.268432617188 C 1662.475219726562 1038.161010742188 1663.942260742188 1040.37255859375 1664.94287109375 1042.840942382812 C 1665.907348632812 1045.220703125 1666.397705078125 1047.73486328125 1666.400024414062 1050.3134765625 C 1666.40234375 1052.891723632812 1665.916748046875 1055.406494140625 1664.956665039062 1057.787841796875 C 1663.9609375 1060.257568359375 1662.49853515625 1062.471313476562 1660.609985351562 1064.367431640625 L 1660.5625 1064.4150390625 L 1660.513549804688 1064.461303710938 L 1652.31591796875 1072.213623046875 L 1649.136352539062 1075.220458984375 L 1646.0419921875 1072.126098632812 L 1632.6826171875 1058.766723632812 L 1632.649780273438 1058.733764648438 L 1632.64794921875 1058.73193359375 C 1632.627319335938 1058.725463867188 1632.590087890625 1058.717407226562 1632.54150390625 1058.717407226562 C 1632.493041992188 1058.717407226562 1632.455810546875 1058.725463867188 1632.43505859375 1058.73193359375 L 1632.433227539062 1058.73388671875 L 1632.400268554688 1058.766845703125 L 1629.938354492188 1061.228515625 C 1628.462036132812 1062.744018554688 1626.375366210938 1063.611938476562 1624.203491210938 1063.611938476562 C 1622.028198242188 1063.611938476562 1619.938232421875 1062.741333007812 1618.461303710938 1061.2216796875 C 1616.9384765625 1059.68212890625 1616.110107421875 1057.6435546875 1616.128173828125 1055.476318359375 C 1616.146118164062 1053.296997070312 1617.017822265625 1051.261596679688 1618.5830078125 1049.74462890625 L 1632.452758789062 1036.26953125 C 1634.342895507812 1034.378662109375 1636.551513671875 1032.912353515625 1639.017456054688 1031.911376953125 C 1641.40625 1030.941650390625 1643.930053710938 1030.450073242188 1646.518798828125 1030.450073242188 Z" stroke="none" fill="#4591ff"/></g><g transform="translate(-83.217 -266.296)" fill="#c3fdf2" stroke-miterlimit="10"><path d="M 1491.177978515625 1344.738891601562 C 1489.779296875 1344.738891601562 1488.465087890625 1344.195190429688 1487.4775390625 1343.207763671875 L 1487.42431640625 1343.154418945312 C 1486.444946289062 1342.203979492188 1485.883911132812 1340.851928710938 1485.883911132812 1339.440307617188 C 1485.883911132812 1338.028564453125 1486.4453125 1336.676391601562 1487.424926757812 1335.725952148438 L 1491.50244140625 1331.6484375 L 1491.50244140625 1331.6484375 L 1491.5439453125 1331.606811523438 L 1494.16259765625 1328.988159179688 C 1495.145263671875 1328.001953125 1496.459716796875 1327.45751953125 1497.861083984375 1327.45751953125 C 1499.283203125 1327.45751953125 1500.656860351562 1328.041870117188 1501.638793945312 1329.062622070312 C 1502.6044921875 1330.011962890625 1503.1572265625 1331.354370117188 1503.1572265625 1332.75537109375 C 1503.1572265625 1334.167236328125 1502.595825195312 1335.519409179688 1501.6162109375 1336.469848632812 L 1494.87841796875 1343.20751953125 C 1493.890991210938 1344.195068359375 1492.576782226562 1344.738891601562 1491.177978515625 1344.738891601562 Z" stroke="none"/><path d="M 1491.177978515625 1342.488891601562 C 1491.942016601562 1342.488891601562 1492.705932617188 1342.198120117188 1493.287475585938 1341.616577148438 L 1500.039184570312 1334.864868164062 C 1501.196655273438 1333.75439453125 1501.196533203125 1331.755981445312 1500.039184570312 1330.6455078125 C 1499.452270507812 1330.021728515625 1498.656860351562 1329.70751953125 1497.861083984375 1329.70751953125 C 1497.097778320312 1329.70751953125 1496.334106445312 1329.99658203125 1495.753540039062 1330.5791015625 L 1493.134887695312 1333.19775390625 L 1493.132568359375 1333.200317382812 L 1489.001953125 1337.330932617188 C 1487.844482421875 1338.44140625 1487.844604492188 1340.439697265625 1489.001953125 1341.550170898438 L 1489.068237304688 1341.616577148438 C 1489.650024414062 1342.198120117188 1490.4140625 1342.488891601562 1491.177978515625 1342.488891601562 M 1491.177978515625 1346.988891601562 C 1489.178466796875 1346.988891601562 1487.29931640625 1346.211181640625 1485.88671875 1344.799072265625 L 1485.843505859375 1344.755737304688 C 1484.438354492188 1343.384399414062 1483.6337890625 1341.450805664062 1483.633911132812 1339.440307617188 C 1483.633911132812 1337.429077148438 1484.439208984375 1335.494873046875 1485.845336914062 1334.123657226562 L 1489.868896484375 1330.099975585938 L 1489.869018554688 1330.099853515625 L 1489.952880859375 1330.015747070312 L 1492.566162109375 1327.402465820312 C 1493.976928710938 1325.987060546875 1495.857299804688 1325.20751953125 1497.861083984375 1325.20751953125 C 1499.882446289062 1325.20751953125 1501.835693359375 1326.034423828125 1503.238525390625 1327.480102539062 C 1504.618286132812 1328.848876953125 1505.407348632812 1330.764526367188 1505.4072265625 1332.755493164062 C 1505.4072265625 1334.766357421875 1504.60205078125 1336.700561523438 1503.1962890625 1338.071655273438 L 1496.469482421875 1344.798583984375 C 1495.057006835938 1346.2109375 1493.177856445312 1346.988891601562 1491.177978515625 1346.988891601562 Z" stroke="none" fill="#4591ff"/></g><g transform="translate(-26.67 -229.645)" fill="#c3fdf2" stroke-miterlimit="10"><path d="M 1427.164184570312 1300.620849609375 C 1425.765380859375 1300.620849609375 1424.451171875 1300.076904296875 1423.463623046875 1299.08935546875 L 1423.39697265625 1299.022705078125 C 1421.357177734375 1296.981689453125 1421.357421875 1293.661865234375 1423.397094726562 1291.621704101562 L 1427.514526367188 1287.504272460938 C 1428.465087890625 1286.52490234375 1429.817016601562 1285.9638671875 1431.228637695312 1285.9638671875 C 1432.639526367188 1285.9638671875 1433.990844726562 1286.524536132812 1434.941162109375 1287.503051757812 L 1434.980712890625 1287.54248046875 C 1435.9609375 1288.49267578125 1436.522705078125 1289.845458984375 1436.522583007812 1291.258178710938 C 1436.522583007812 1292.670043945312 1435.961303710938 1294.022094726562 1434.98193359375 1294.972290039062 L 1430.865112304688 1299.08935546875 C 1429.877197265625 1300.077026367188 1428.56298828125 1300.620849609375 1427.164184570312 1300.620849609375 Z" stroke="none"/><path d="M 1427.164184570312 1298.370849609375 C 1427.92822265625 1298.370849609375 1428.6923828125 1298.079956054688 1429.274047851562 1297.498413085938 L 1433.404907226562 1293.367309570312 C 1434.561767578125 1292.257446289062 1434.561767578125 1290.258666992188 1433.405395507812 1289.149047851562 L 1433.338012695312 1289.081909179688 C 1432.78271484375 1288.503173828125 1432.005737304688 1288.2138671875 1431.228515625 1288.2138671875 C 1430.451416015625 1288.2138671875 1429.674194335938 1288.503295898438 1429.118896484375 1289.081909179688 L 1424.98828125 1293.21240234375 C 1423.8251953125 1294.375854492188 1423.825073242188 1296.268188476562 1424.98779296875 1297.431640625 L 1425.054565429688 1297.498413085938 C 1425.63623046875 1298.080078125 1426.400146484375 1298.370849609375 1427.164184570312 1298.370849609375 M 1427.164184570312 1302.870849609375 C 1425.164428710938 1302.870849609375 1423.28515625 1302.092895507812 1421.87255859375 1300.680419921875 L 1421.805786132812 1300.613647460938 C 1418.889038085938 1297.695068359375 1418.889526367188 1292.948120117188 1421.805786132812 1290.030883789062 L 1425.912231445312 1285.924560546875 C 1427.283569335938 1284.51904296875 1429.2177734375 1283.7138671875 1431.228515625 1283.7138671875 C 1433.237670898438 1283.7138671875 1435.169921875 1284.517456054688 1436.540893554688 1285.920776367188 L 1436.559448242188 1285.939208984375 C 1437.966796875 1287.310302734375 1438.772705078125 1289.245727539062 1438.772583007812 1291.258178710938 C 1438.772583007812 1293.26904296875 1437.9677734375 1295.202758789062 1436.562622070312 1296.573608398438 L 1432.456176757812 1300.680297851562 C 1431.043090820312 1302.093017578125 1429.163940429688 1302.870849609375 1427.164184570312 1302.870849609375 Z" stroke="none" fill="#4591ff"/></g><g transform="translate(-140.569 -352.782)" fill="#c3fdf2" stroke-miterlimit="10"><path d="M 1556.111328125 1438.577270507812 C 1554.71240234375 1438.577270507812 1553.398071289062 1438.033325195312 1552.41064453125 1437.045654296875 L 1552.344360351562 1436.979248046875 C 1550.304077148438 1434.939208984375 1550.303955078125 1431.619018554688 1552.34423828125 1429.578247070312 L 1555.022094726562 1426.900268554688 C 1556.0048828125 1425.914184570312 1557.3193359375 1425.36962890625 1558.720703125 1425.36962890625 C 1560.142944335938 1425.36962890625 1561.516479492188 1425.953857421875 1562.498413085938 1426.974487304688 C 1563.464233398438 1427.923950195312 1564.016967773438 1429.266357421875 1564.016845703125 1430.66748046875 C 1564.016845703125 1432.079223632812 1563.455444335938 1433.431518554688 1562.475952148438 1434.381958007812 L 1559.81201171875 1437.045776367188 C 1558.824462890625 1438.033325195312 1557.51025390625 1438.577270507812 1556.111328125 1438.577270507812 Z" stroke="none"/><path d="M 1556.111328125 1436.327270507812 C 1556.875366210938 1436.327270507812 1557.639404296875 1436.036376953125 1558.221069335938 1435.454833984375 L 1560.89892578125 1432.776977539062 C 1562.056274414062 1431.666381835938 1562.05615234375 1429.668090820312 1560.89892578125 1428.557495117188 C 1560.31201171875 1427.933837890625 1559.5166015625 1427.61962890625 1558.720703125 1427.61962890625 C 1557.957397460938 1427.61962890625 1557.193603515625 1427.908813476562 1556.613159179688 1428.4912109375 L 1553.935424804688 1431.169067382812 C 1552.772216796875 1432.33251953125 1552.772216796875 1434.225341796875 1553.935424804688 1435.388427734375 L 1554.001831054688 1435.454833984375 C 1554.583251953125 1436.036376953125 1555.347290039062 1436.327270507812 1556.111328125 1436.327270507812 M 1556.111328125 1440.827270507812 C 1554.111328125 1440.827270507812 1552.23193359375 1440.049194335938 1550.819458007812 1438.636474609375 L 1550.753784179688 1438.570678710938 C 1547.835815429688 1435.653076171875 1547.835571289062 1430.905517578125 1550.753051757812 1427.987426757812 L 1553.43115234375 1425.309326171875 C 1554.841186523438 1423.897338867188 1556.719482421875 1423.11962890625 1558.720703125 1423.11962890625 C 1560.742309570312 1423.11962890625 1562.695556640625 1423.946533203125 1564.098266601562 1425.392211914062 C 1565.47802734375 1426.760986328125 1566.266967773438 1428.676635742188 1566.266845703125 1430.66748046875 C 1566.266845703125 1432.678344726562 1565.4619140625 1434.6123046875 1564.056274414062 1435.983520507812 L 1561.403076171875 1438.636840820312 C 1559.990600585938 1440.04931640625 1558.111328125 1440.827270507812 1556.111328125 1440.827270507812 Z" stroke="none" fill="#4591ff"/></g></g></svg>