<svg width="678" height="191" viewBox="0 0 678 191" fill="none" xmlns="http://www.w3.org/2000/svg">
<path d="M265.085 90.3878H278.418C278.225 78.6609 268.587 70.5646 253.936 70.5646C239.51 70.5646 228.94 78.5324 229.004 90.4842C228.972 100.187 235.816 105.745 246.932 108.412L254.097 110.211C261.261 111.946 265.245 114.002 265.277 118.436C265.245 123.255 260.683 126.532 253.615 126.532C246.386 126.532 241.181 123.191 240.731 116.605H227.269C227.623 130.838 237.808 138.195 253.775 138.195C269.84 138.195 279.285 130.516 279.318 118.468C279.285 107.512 271.028 101.697 259.591 99.1268L253.679 97.7131C247.96 96.3958 243.173 94.2754 243.269 89.5525C243.269 85.3115 247.028 82.1951 253.84 82.1951C260.49 82.1951 264.571 85.2151 265.085 90.3878Z" fill="#0E013D"/>
<path d="M297.408 137.263L302.292 122.259H326.035L330.918 137.263H345.826L323.143 71.4642H305.216L282.501 137.263H297.408ZM305.826 111.4L313.922 86.5003H314.437L322.533 111.4H305.826Z" fill="#0E013D"/>
<path d="M352.64 137.263H366.551V110.083H393.314V98.6127H366.551V82.934H396.206V71.4642H352.64V137.263Z" fill="#0E013D"/>
<path d="M407.582 137.263L412.466 122.259H436.209L441.092 137.263H456L433.317 71.4642H415.389L392.675 137.263H407.582ZM416 111.4L424.096 86.5003H424.61L432.707 111.4H416Z" fill="#0E013D"/>
<path d="M462.814 137.263H476.725V115.93H488.42C503.552 115.93 512.356 106.902 512.356 93.7613C512.356 80.685 503.713 71.4642 488.773 71.4642H462.814V137.263ZM476.725 104.781V82.8376H486.107C494.139 82.8376 498.026 87.2071 498.026 93.7613C498.026 100.283 494.139 104.781 486.171 104.781H476.725Z" fill="#0E013D"/>
<path d="M520.286 137.263H534.198V115.93H545.892C561.025 115.93 569.828 106.902 569.828 93.7613C569.828 80.685 561.185 71.4642 546.246 71.4642H520.286V137.263ZM534.198 104.781V82.8376H543.579C551.611 82.8376 555.499 87.2071 555.499 93.7613C555.499 100.283 551.611 104.781 543.643 104.781H534.198Z" fill="#0E013D"/>
<path d="M577.758 137.263H619.879V125.793H591.67V71.4642H577.758V137.263Z" fill="#0E013D"/>
<path d="M615.737 71.4642L639.737 114.002V137.263H653.552V114.002L677.552 71.4642H661.97L646.966 99.8015H646.323L631.319 71.4642H615.737Z" fill="#0E013D"/>
<path d="M95.5 191C42.7557 191 0 148.244 0 95.5C0 42.7557 42.7557 0 95.5 0H178.819C185.518 0 191 5.4815 191 12.1811V95.5C191 148.244 148.244 191 95.5 191Z" fill="#9273FC"/>
<path d="M155.431 64.5602H76.8626C71.8683 64.5602 67.8485 60.5404 67.8485 55.5461C67.8485 50.5519 71.8683 46.5321 76.8626 46.5321H155.431C160.425 46.5321 164.445 50.5519 164.445 55.5461C164.323 60.5404 160.303 64.5602 155.431 64.5602Z" fill="#FAF3FF"/>
<path d="M44.8267 64.5602C39.8324 64.5602 35.8126 60.5404 35.8126 55.5461C35.8126 50.5519 39.8324 46.5321 44.8267 46.5321C49.8209 46.5321 53.8407 50.5519 53.8407 55.5461C53.7189 60.5404 49.6991 64.5602 44.8267 64.5602Z" fill="#FAF3FF"/>
<path d="M155.431 97.8144H43.7302C38.7359 97.8144 34.7162 93.7947 34.7162 88.8004C34.7162 83.8062 38.7359 79.7864 43.7302 79.7864H155.431C160.425 79.7864 164.445 83.8062 164.445 88.8004C164.323 93.7947 160.304 97.8144 155.431 97.8144Z" fill="#FAF3FF"/>
<path d="M43.4869 132.165H122.055C127.049 132.165 131.069 128.145 131.069 123.151C131.069 118.157 127.049 114.137 122.055 114.137H43.4869C38.4926 114.137 34.4728 118.157 34.4728 123.151C34.4728 128.145 38.4926 132.165 43.4869 132.165Z" fill="#FAF3FF"/>
<path d="M154.092 132.165C159.086 132.165 163.106 128.145 163.106 123.151C163.106 118.157 159.086 114.137 154.092 114.137C149.097 114.137 145.078 118.157 145.078 123.151C145.078 128.145 149.097 132.165 154.092 132.165Z" fill="#FAF3FF"/>
</svg>
