<svg xmlns="http://www.w3.org/2000/svg" width="100.632" height="35.492" viewBox="0 0 100.632 35.492"><g transform="translate(0 -0.001)"><g transform="translate(40.511 8.967)"><path d="M782.371,208.581c-2.079,0-2.856.977-2.856,1.979,0,3.282,9.143,1.753,9.143,8.016,0,3.056-2.154,4.96-6.288,4.96a7.539,7.539,0,0,1-6.338-3.056,1.347,1.347,0,0,1,1.127-2.054,1.467,1.467,0,0,1,1.1.551,5.745,5.745,0,0,0,4.109,1.9c2.28,0,3.382-.751,3.382-2.3,0-3.657-9.144-1.979-9.144-8.016,0-2.48,1.779-4.584,5.762-4.584,2.505,0,4.685.927,5.687,2.355a1.448,1.448,0,0,1,.25.8,1.342,1.342,0,0,1-1.353,1.328,1.659,1.659,0,0,1-1.077-.551A5.175,5.175,0,0,0,782.371,208.581Z" transform="translate(-775.833 -205.976)" fill="#0f5fa7"/><path d="M1026.929,222.124v5.211a1.453,1.453,0,0,1-2.906,0V213.181a1.454,1.454,0,0,1,1.453-1.453h4.785a5.02,5.02,0,0,1,5.286,5.236c0,2.38-1.453,4.685-3.858,4.985l3.707,4.509a1.424,1.424,0,0,1,.3.877,1.459,1.459,0,0,1-2.58.927l-4.559-6.138Zm0-7.791v5.236h3.382c1.553,0,2.229-1.278,2.229-2.605,0-1.353-.676-2.63-2.3-2.63Z" transform="translate(-1008.892 -211.377)" fill="#0f5fa7"/><path d="M1258.867,222.144l-3.933-6.989v9.119a1.428,1.428,0,0,1-2.856,0v-14.4a1.443,1.443,0,0,1,1.428-1.428,1.412,1.412,0,0,1,1.278.8l5.311,9.519,5.311-9.519a1.411,1.411,0,0,1,1.278-.8,1.444,1.444,0,0,1,1.428,1.428v14.4a1.428,1.428,0,0,1-2.856,0v-9.119l-3.933,6.989a1.425,1.425,0,0,1-2.455,0Z" transform="translate(-1223.044 -208.291)" fill="#0f5fa7"/><path d="M1558.165,208.581c-2.079,0-2.856.977-2.856,1.979,0,3.282,9.144,1.753,9.144,8.016,0,3.056-2.154,4.96-6.288,4.96a7.539,7.539,0,0,1-6.338-3.056,1.347,1.347,0,0,1,1.127-2.054,1.468,1.468,0,0,1,1.1.551,5.744,5.744,0,0,0,4.108,1.9c2.28,0,3.382-.751,3.382-2.3,0-3.657-9.144-1.979-9.144-8.016,0-2.48,1.778-4.584,5.762-4.584,2.5,0,4.685.927,5.687,2.355a1.448,1.448,0,0,1,.25.8,1.342,1.342,0,0,1-1.353,1.328,1.66,1.66,0,0,1-1.077-.551A5.175,5.175,0,0,0,1558.165,208.581Z" transform="translate(-1504.331 -205.976)" fill="#0f5fa7"/></g><g transform="translate(0 0.001)"><path d="M137.781,163.408A5.4,5.4,0,0,1,143.2,168.8a5.335,5.335,0,0,1-.529,2.346l.028.044-10.467,18.215a5.405,5.405,0,0,1-9.758.05l-10.012-17.368a5.4,5.4,0,0,1,4.279-8.7Z" transform="translate(-111.332 -157.019)" fill="#bdccd4"/><path d="M137.724,88.034h.058a5.424,5.424,0,0,0,4.885-7.76l.028-.044L132.227,62.014a5.405,5.405,0,0,0-9.758-.05L112.457,79.331a5.4,5.4,0,0,0,4.279,8.7Z" transform="translate(-111.332 -58.909)" fill="#0f5fa7"/><g transform="translate(9.246 10.916)"><path d="M276.379,244.652a6.69,6.69,0,1,1-6.69-6.69A6.69,6.69,0,0,1,276.379,244.652Z" transform="translate(-262.999 -237.962)" fill="#fff"/><g transform="translate(2.542 2.542)"><ellipse cx="4.148" cy="4.148" rx="4.148" ry="4.148" fill="#bdccd4"/></g></g></g></g></svg>