<svg xmlns="http://www.w3.org/2000/svg" width="75.793" height="85.271" viewBox="0 0 75.793 85.271"><g transform="translate(-2852.75 -1124.969)"><g transform="translate(2865.422 1160.572)"><g transform="translate(-2916.25 -1338.469)" fill="#174dfd"><path d="M 2923.129150390625 1372.628051757812 C 2918.37109375 1372.628051757812 2914.5 1368.756958007812 2914.5 1363.998779296875 L 2914.5 1345.34814453125 C 2914.5 1340.589965820312 2918.37109375 1336.718994140625 2923.129150390625 1336.718994140625 C 2927.88720703125 1336.718994140625 2931.75830078125 1340.589965820312 2931.75830078125 1345.34814453125 L 2931.75830078125 1363.998779296875 C 2931.75830078125 1368.756958007812 2927.88720703125 1372.628051757812 2923.129150390625 1372.628051757812 Z" stroke="none"/><path d="M 2923.129150390625 1338.468994140625 C 2919.335693359375 1338.468994140625 2916.25 1341.554809570312 2916.25 1345.34814453125 L 2916.25 1363.998779296875 C 2916.25 1367.792236328125 2919.335693359375 1370.878051757812 2923.129150390625 1370.878051757812 C 2926.9228515625 1370.878051757812 2930.00830078125 1367.792236328125 2930.00830078125 1363.998779296875 L 2930.00830078125 1345.34814453125 C 2930.00830078125 1341.554809570312 2926.9228515625 1338.468994140625 2923.129150390625 1338.468994140625 M 2923.129150390625 1334.968994140625 C 2928.852294921875 1334.968994140625 2933.50830078125 1339.625122070312 2933.50830078125 1345.34814453125 L 2933.50830078125 1363.998779296875 C 2933.50830078125 1369.721923828125 2928.852294921875 1374.378051757812 2923.129150390625 1374.378051757812 C 2917.406005859375 1374.378051757812 2912.75 1369.721923828125 2912.75 1363.998779296875 L 2912.75 1345.34814453125 C 2912.75 1339.625122070312 2917.406005859375 1334.968994140625 2923.129150390625 1334.968994140625 Z" stroke="none" fill="#4591ff"/></g></g><g transform="translate(2856.25 1165.52)"><g transform="translate(-2856.25 -1370.835)" fill="#c3fdf2"><path d="M 2863.243896484375 1395.902587890625 L 2860.4931640625 1395.013427734375 C 2858.77001953125 1394.456420898438 2857.28662109375 1393.39697265625 2856.203369140625 1391.949584960938 C 2855.089111328125 1390.460693359375 2854.5 1388.690551757812 2854.5 1386.83056640625 L 2854.5 1377.3525390625 C 2854.5 1375.49267578125 2855.089111328125 1373.722534179688 2856.203369140625 1372.233642578125 C 2857.286865234375 1370.7861328125 2858.770263671875 1369.726684570312 2860.4931640625 1369.169799804688 L 2863.243896484375 1368.28076171875 L 2862.75634765625 1371.130004882812 C 2862.67236328125 1371.622192382812 2862.586181640625 1372.201538085938 2862.586181640625 1372.766357421875 L 2862.586181640625 1391.416870117188 C 2862.586181640625 1391.981689453125 2862.67236328125 1392.56103515625 2862.75634765625 1393.05322265625 L 2863.243896484375 1395.902587890625 Z" stroke="none"/><path d="M 2861.031494140625 1370.8349609375 C 2858.26806640625 1371.728149414062 2856.25 1374.295288085938 2856.25 1377.3525390625 L 2856.25 1386.83056640625 C 2856.25 1389.888061523438 2858.26806640625 1392.454956054688 2861.031494140625 1393.348266601562 C 2860.923583984375 1392.717407226562 2860.836181640625 1392.078247070312 2860.836181640625 1391.416870117188 L 2860.836181640625 1372.766357421875 C 2860.836181640625 1372.104858398438 2860.923583984375 1371.4658203125 2861.031494140625 1370.8349609375 M 2865.4560546875 1365.7265625 L 2864.4814453125 1371.425048828125 C 2864.40966796875 1371.844848632812 2864.336181640625 1372.33251953125 2864.336181640625 1372.766357421875 L 2864.336181640625 1391.416870117188 C 2864.336181640625 1391.850708007812 2864.40966796875 1392.33837890625 2864.4814453125 1392.758178710938 L 2865.4560546875 1398.456909179688 L 2859.954833984375 1396.678588867188 C 2857.885498046875 1396.009643554688 2856.103759765625 1394.736938476562 2854.802490234375 1392.998291015625 C 2853.459716796875 1391.204345703125 2852.75 1389.071533203125 2852.75 1386.83056640625 L 2852.75 1377.3525390625 C 2852.75 1375.111572265625 2853.459716796875 1372.978881835938 2854.802490234375 1371.184936523438 C 2856.103759765625 1369.446166992188 2857.885498046875 1368.173461914062 2859.955078125 1367.504638671875 L 2865.4560546875 1365.7265625 Z" stroke="none" fill="#4591ff"/></g></g><g transform="translate(2883.767 1160.572)"><g transform="translate(-3036.25 -1338.469)" fill="#174dfd"><path d="M 3043.129150390625 1386.38671875 C 3038.37109375 1386.38671875 3034.5 1382.515625 3034.5 1377.757446289062 C 3034.5 1372.999145507812 3038.37109375 1369.128051757812 3043.129150390625 1369.128051757812 C 3044.944091796875 1369.128051757812 3046.6796875 1369.690795898438 3048.1484375 1370.755493164062 C 3049.229736328125 1371.53955078125 3050.104736328125 1372.548095703125 3050.722900390625 1373.714233398438 L 3056.887939453125 1373.714233398438 C 3058.00341796875 1373.714233398438 3059.061767578125 1373.356567382812 3059.948486328125 1372.679931640625 C 3060.013916015625 1372.630004882812 3060.078369140625 1372.578369140625 3060.14111328125 1372.525268554688 C 3056.013916015625 1371.882446289062 3052.844970703125 1368.303588867188 3052.844970703125 1363.998779296875 L 3052.844970703125 1345.34814453125 C 3052.844970703125 1340.589965820312 3056.716064453125 1336.718994140625 3061.47412109375 1336.718994140625 C 3066.232177734375 1336.718994140625 3070.103271484375 1340.589965820312 3070.103271484375 1345.34814453125 L 3070.103271484375 1363.998779296875 L 3070.103271484375 1368.585083007812 C 3070.103271484375 1375.8720703125 3064.1748046875 1381.800415039062 3056.887939453125 1381.800415039062 L 3050.722900390625 1381.800415039062 C 3050.104736328125 1382.966674804688 3049.229736328125 1383.975219726562 3048.1484375 1384.759155273438 C 3046.6796875 1385.823974609375 3044.944091796875 1386.38671875 3043.129150390625 1386.38671875 Z" stroke="none"/><path d="M 3061.47412109375 1338.468994140625 C 3057.6806640625 1338.468994140625 3054.594970703125 1341.554809570312 3054.594970703125 1345.34814453125 L 3054.594970703125 1363.998779296875 C 3054.594970703125 1367.792236328125 3057.6806640625 1370.878051757812 3061.47412109375 1370.878051757812 C 3062.16357421875 1370.878051757812 3062.81640625 1370.745361328125 3063.44482421875 1370.555908203125 C 3062.591064453125 1373.385375976562 3059.99169921875 1375.464233398438 3056.887939453125 1375.464233398438 L 3049.586181640625 1375.464233398438 C 3048.636474609375 1372.800903320312 3046.114990234375 1370.878051757812 3043.129150390625 1370.878051757812 C 3039.3359375 1370.878051757812 3036.25 1373.963989257812 3036.25 1377.757446289062 C 3036.25 1381.550903320312 3039.3359375 1384.63671875 3043.129150390625 1384.63671875 C 3046.114990234375 1384.63671875 3048.636474609375 1382.7138671875 3049.586181640625 1380.050415039062 L 3056.887939453125 1380.050415039062 C 3063.20947265625 1380.050415039062 3068.353271484375 1374.90673828125 3068.353271484375 1368.585083007812 L 3068.353271484375 1363.998779296875 L 3068.353271484375 1345.34814453125 C 3068.353271484375 1341.554809570312 3065.267333984375 1338.468994140625 3061.47412109375 1338.468994140625 M 3061.47412109375 1334.968994140625 C 3067.197265625 1334.968994140625 3071.853271484375 1339.625122070312 3071.853271484375 1345.34814453125 L 3071.853271484375 1363.998779296875 L 3071.853271484375 1368.585083007812 C 3071.853271484375 1376.837036132812 3065.139892578125 1383.550415039062 3056.887939453125 1383.550415039062 L 3051.71240234375 1383.550415039062 C 3051.032958984375 1384.561645507812 3050.17822265625 1385.44921875 3049.175537109375 1386.176025390625 C 3047.40625 1387.458740234375 3045.3154296875 1388.13671875 3043.129150390625 1388.13671875 C 3037.406005859375 1388.13671875 3032.75 1383.480590820312 3032.75 1377.757446289062 C 3032.75 1372.0341796875 3037.406005859375 1367.378051757812 3043.129150390625 1367.378051757812 C 3045.3154296875 1367.378051757812 3047.40625 1368.056030273438 3049.175537109375 1369.338745117188 C 3050.17822265625 1370.065551757812 3051.032958984375 1370.953125 3051.71240234375 1371.964233398438 L 3054.826904296875 1371.964233398438 C 3052.547119140625 1370.058715820312 3051.094970703125 1367.1953125 3051.094970703125 1363.998779296875 L 3051.094970703125 1345.34814453125 C 3051.094970703125 1339.625122070312 3055.7509765625 1334.968994140625 3061.47412109375 1334.968994140625 Z" stroke="none" fill="#4591ff"/></g></g><g transform="translate(2920.261 1165.52)"><g transform="translate(-3274.972 -1370.835)" fill="#c3fdf2"><path d="M 3272.758056640625 1395.90283203125 L 3273.246826171875 1393.052490234375 C 3273.3310546875 1392.561157226562 3273.417236328125 1391.982421875 3273.417236328125 1391.416870117188 L 3273.417236328125 1372.766357421875 C 3273.417236328125 1372.200805664062 3273.3310546875 1371.622192382812 3273.246826171875 1371.130737304688 L 3272.75830078125 1368.280517578125 L 3275.509765625 1369.169799804688 C 3277.233154296875 1369.726684570312 3278.716552734375 1370.7861328125 3279.800048828125 1372.233642578125 C 3280.914306640625 1373.722412109375 3281.50341796875 1375.492553710938 3281.50341796875 1377.3525390625 L 3281.50341796875 1386.83056640625 C 3281.50341796875 1388.690673828125 3280.914306640625 1390.460815429688 3279.800048828125 1391.949584960938 C 3278.716796875 1393.39697265625 3277.233154296875 1394.456420898438 3275.509765625 1395.013427734375 L 3272.758056640625 1395.90283203125 Z" stroke="none"/><path d="M 3274.9716796875 1370.8349609375 C 3275.079833984375 1371.4658203125 3275.167236328125 1372.104858398438 3275.167236328125 1372.766357421875 L 3275.167236328125 1391.416870117188 C 3275.167236328125 1392.078247070312 3275.079833984375 1392.717407226562 3274.9716796875 1393.348266601562 C 3277.735595703125 1392.454956054688 3279.75341796875 1389.888061523438 3279.75341796875 1386.83056640625 L 3279.75341796875 1377.3525390625 C 3279.75341796875 1374.295288085938 3277.735595703125 1371.728149414062 3274.9716796875 1370.8349609375 M 3270.544677734375 1365.72607421875 L 3276.0478515625 1367.504516601562 C 3278.11767578125 1368.17333984375 3279.899658203125 1369.446044921875 3281.201171875 1371.184936523438 C 3282.543701171875 1372.978881835938 3283.25341796875 1375.111572265625 3283.25341796875 1377.3525390625 L 3283.25341796875 1386.83056640625 C 3283.25341796875 1389.071655273438 3282.543701171875 1391.204345703125 3281.201171875 1392.998291015625 C 3279.899658203125 1394.737060546875 3278.11767578125 1396.009765625 3276.048095703125 1396.678588867188 L 3270.544677734375 1398.457397460938 L 3271.52197265625 1392.7568359375 C 3271.59375 1392.338012695312 3271.667236328125 1391.851196289062 3271.667236328125 1391.416870117188 L 3271.667236328125 1372.766357421875 C 3271.667236328125 1372.33203125 3271.59375 1371.84521484375 3271.52197265625 1371.426391601562 L 3270.544677734375 1365.72607421875 Z" stroke="none" fill="#4591ff"/></g></g><g transform="translate(2856.25 1128.469)"><g transform="translate(-2856.25 -1128.469)" fill="#174dfd"><path d="M 2854.5 1166.444091796875 L 2854.5 1162.924072265625 L 2854.5 1162.865478515625 C 2854.5 1142.934204101562 2870.71533203125 1126.718994140625 2890.646484375 1126.718994140625 C 2910.57763671875 1126.718994140625 2926.79296875 1142.934204101562 2926.79296875 1162.865478515625 L 2926.79296875 1162.923828125 L 2926.79296875 1166.442993164062 L 2923.98681640625 1164.319213867188 C 2922.76416015625 1163.393920898438 2921.428955078125 1162.78564453125 2920.01806640625 1162.511596679688 L 2918.698974609375 1162.255249023438 L 2918.60595703125 1160.914672851562 C 2918.116455078125 1153.846923828125 2914.9892578125 1147.271118164062 2909.801025390625 1142.398681640625 C 2904.586669921875 1137.501953125 2897.7841796875 1134.80517578125 2890.646484375 1134.80517578125 C 2883.509033203125 1134.80517578125 2876.70654296875 1137.501953125 2871.4921875 1142.398803710938 C 2866.3037109375 1147.271240234375 2863.176513671875 1153.847045898438 2862.68701171875 1160.914794921875 L 2862.593994140625 1162.255249023438 L 2861.275146484375 1162.51171875 C 2859.863525390625 1162.786010742188 2858.528076171875 1163.394165039062 2857.306396484375 1164.319213867188 L 2854.5 1166.444091796875 Z" stroke="none"/><path d="M 2890.646484375 1128.468994140625 C 2871.679443359375 1128.468994140625 2856.25 1143.898193359375 2856.25 1162.865478515625 L 2856.25 1162.924072265625 C 2857.6162109375 1161.8896484375 2859.197021484375 1161.1328125 2860.941162109375 1160.793823242188 C 2862.012939453125 1145.323364257812 2874.908935546875 1133.05517578125 2890.646484375 1133.05517578125 C 2906.38427734375 1133.05517578125 2919.280029296875 1145.323364257812 2920.351806640625 1160.793701171875 C 2922.095947265625 1161.132568359375 2923.676513671875 1161.8896484375 2925.04296875 1162.923828125 L 2925.04296875 1162.865478515625 C 2925.04296875 1143.898193359375 2909.61376953125 1128.468994140625 2890.646484375 1128.468994140625 M 2890.646484375 1124.968994140625 C 2911.542724609375 1124.968994140625 2928.54296875 1141.96923828125 2928.54296875 1162.865478515625 L 2928.54296875 1162.923828125 L 2928.54296875 1169.962158203125 L 2922.930908203125 1165.714599609375 C 2921.9228515625 1164.951904296875 2920.83056640625 1164.4521484375 2919.684326171875 1164.2294921875 L 2917.0458984375 1163.716796875 L 2916.860107421875 1161.03564453125 C 2916.401123046875 1154.409423828125 2913.46875 1148.243774414062 2908.60302734375 1143.674438476562 C 2903.71435546875 1139.08349609375 2897.337158203125 1136.55517578125 2890.646484375 1136.55517578125 C 2883.955810546875 1136.55517578125 2877.578857421875 1139.08349609375 2872.690185546875 1143.674438476562 C 2867.824462890625 1148.243896484375 2864.891845703125 1154.409545898438 2864.432861328125 1161.035766601562 L 2864.2470703125 1163.716796875 L 2861.60888671875 1164.2294921875 C 2860.4619140625 1164.452514648438 2859.36962890625 1164.952026367188 2858.36279296875 1165.714477539062 L 2852.75 1169.964111328125 L 2852.75 1162.924072265625 L 2852.75 1162.865478515625 C 2852.75 1141.96923828125 2869.750244140625 1124.968994140625 2890.646484375 1124.968994140625 Z" stroke="none" fill="#4591ff"/></g></g></g></svg>