<svg xmlns="http://www.w3.org/2000/svg" width="29.829" height="24.225" viewBox="0 0 29.829 24.225"><path d="M26.762,9.419c.019.265.019.53.019.795,0,8.082-6.151,17.393-17.393,17.393A17.28,17.28,0,0,1,0,24.862a12.738,12.738,0,0,0,1.476.075,12.246,12.246,0,0,0,7.59-2.612,6.123,6.123,0,0,1-5.715-4.24,7.765,7.765,0,0,0,1.154.094,6.465,6.465,0,0,0,1.609-.208,6.113,6.113,0,0,1-4.9-6V11.9a6.15,6.15,0,0,0,2.763.776A6.123,6.123,0,0,1,2.083,4.5a17.377,17.377,0,0,0,12.6,6.4,6.909,6.909,0,0,1-.152-1.4,6.119,6.119,0,0,1,10.58-4.183A12.053,12.053,0,0,0,29,3.835,6.1,6.1,0,0,1,26.308,7.2a12.261,12.261,0,0,0,3.521-.946,13.144,13.144,0,0,1-3.066,3.161Z" transform="translate(0 -3.381)" fill="#fff"/></svg>